{
  "accessors": [
    {
      "name": "String1 Ballon_1_0_positions",
      "componentType": 5126,
      "count": 9408,
      "min": [
        -0.02761800028383732,
        -0.275191992521286,
        -0.13034500181674957
      ],
      "max": [
        0.021443000063300133,
        0.45861899852752686,
        0.05198200047016144
      ],
      "type": "VEC3",
      "bufferView": 0,
      "byteOffset": 0
    },
    {
      "name": "String1 Ballon_1_0_normals",
      "componentType": 5126,
      "count": 9408,
      "min": [
        -1,
        -0.9999293088912964,
        -0.9999602437019348
      ],
      "max": [
        1,
        0.9998447895050049,
        0.999699056148529
      ],
      "type": "VEC3",
      "bufferView": 1,
      "byteOffset": 0
    },
    {
      "name": "String1 Ballon_1_0_texcoords",
      "componentType": 5126,
      "count": 9408,
      "min": [
        -1,
        1
      ],
      "max": [
        6,
        17
      ],
      "type": "VEC2",
      "bufferView": 2,
      "byteOffset": 0
    },
    {
      "name": "String1 Ballon_1_0_indices",
      "componentType": 5123,
      "count": 55668,
      "min": [
        0
      ],
      "max": [
        9407
      ],
      "type": "SCALAR",
      "bufferView": 3,
      "byteOffset": 0
    },
    {
      "name": "Ballon Balloon_1_0_positions",
      "componentType": 5126,
      "count": 2333,
      "min": [
        -0.4435740113258362,
        0.3833959996700287,
        -0.4435740113258362
      ],
      "max": [
        0.443572998046875,
        1.5717639923095703,
        0.4435740113258362
      ],
      "type": "VEC3",
      "bufferView": 0,
      "byteOffset": 112896
    },
    {
      "name": "Ballon Balloon_1_0_normals",
      "componentType": 5126,
      "count": 2333,
      "min": [
        -0.999603271484375,
        -0.9999829530715942,
        -0.9999905824661255
      ],
      "max": [
        0.999603271484375,
        1,
        0.9999905824661255
      ],
      "type": "VEC3",
      "bufferView": 1,
      "byteOffset": 112896
    },
    {
      "name": "Ballon Balloon_1_0_texcoords",
      "componentType": 5126,
      "count": 2333,
      "min": [
        0,
        0
      ],
      "max": [
        1,
        1
      ],
      "type": "VEC2",
      "bufferView": 2,
      "byteOffset": 75264
    },
    {
      "name": "Ballon Balloon_1_0_indices",
      "componentType": 5123,
      "count": 13200,
      "min": [
        0
      ],
      "max": [
        2332
      ],
      "type": "SCALAR",
      "bufferView": 3,
      "byteOffset": 111336
    }
  ],
  "asset": {
    "generator": "obj2gltf",
    "version": "2.0"
  },
  "buffers": [
    {
      "name": "baloon",
      "byteLength": 513448,
      "uri": "data:application/octet-stream;base64,"
    }
  ],
  "bufferViews": [
    {
      "name": "bufferView_0",
      "buffer": 0,
      "byteLength": 140892,
      "byteOffset": 0,
      "byteStride": 12,
      "target": 34962
    },
    {
      "name": "bufferView_1",
      "buffer": 0,
      "byteLength": 140892,
      "byteOffset": 140892,
      "byteStride": 12,
      "target": 34962
    },
    {
      "name": "bufferView_2",
      "buffer": 0,
      "byteLength": 93928,
      "byteOffset": 281784,
      "byteStride": 8,
      "target": 34962
    },
    {
      "name": "bufferView_3",
      "buffer": 0,
      "byteLength": 137736,
      "byteOffset": 375712,
      "target": 34963
    }
  ],
  "materials": [
    {
      "name": "lambert2SG",
      "pbrMetallicRoughness": {
        "baseColorFactor": [
          0.5,
          0.5,
          0.5,
          1
        ],
        "metallicFactor": 0,
        "roughnessFactor": 1
      },
      "emissiveFactor": [
        0,
        0,
        0
      ],
      "alphaMode": "OPAQUE",
      "doubleSided": false
    },
    {
      "name": "blinn1SG",
      "pbrMetallicRoughness": {
        "baseColorFactor": [
          0.5,
          0.5,
          0.5,
          1
        ],
        "metallicFactor": 0,
        "roughnessFactor": 1
      },
      "emissiveFactor": [
        0,
        0,
        0
      ],
      "alphaMode": "OPAQUE",
      "doubleSided": false
    }
  ],
  "meshes": [
    {
      "name": "String1 Ballon_1",
      "primitives": [
        {
          "attributes": {
            "POSITION": 0,
            "NORMAL": 1,
            "TEXCOORD_0": 2
          },
          "indices": 3,
          "material": 0,
          "mode": 4
        }
      ]
    },
    {
      "name": "Ballon Balloon_1",
      "primitives": [
        {
          "attributes": {
            "POSITION": 4,
            "NORMAL": 5,
            "TEXCOORD_0": 6
          },
          "indices": 7,
          "material": 1,
          "mode": 4
        }
      ]
    }
  ],
  "nodes": [
    {
      "name": "String1 Ballon",
      "mesh": 0
    },
    {
      "name": "Ballon Balloon",
      "mesh": 1
    }
  ],
  "scene": 0,
  "scenes": [
    {
      "nodes": [
        0,
        1
      ]
    }
  ]
}
